<svg width="120" height="38" viewBox="0 0 120 38" fill="none" xmlns="http://www.w3.org/2000/svg">
<path d="M14.7756 13.8055C14.7756 14.9996 14.4679 16.0329 13.8525 16.9055C13.2463 17.7781 12.3966 18.4487 11.3036 18.9171C10.2105 19.3764 8.95675 19.606 7.54221 19.606C7.14724 19.606 6.66042 19.5785 6.08175 19.5233C5.51226 19.4774 4.74988 19.3396 3.79461 19.11C2.84852 18.8804 1.8611 18.5405 0.83235 18.0904V13.4059C1.79681 14.003 2.74289 14.499 3.67061 14.894C4.60751 15.2889 5.6087 15.4864 6.6742 15.4864C7.65703 15.4864 8.29081 15.3257 8.57555 15.0042C8.86948 14.6735 9.01645 14.3658 9.01645 14.0811C9.01645 13.5667 8.76845 13.135 8.27244 12.7859C7.77643 12.4277 7.05539 12.0603 6.1093 11.6837C5.06218 11.2428 4.14365 10.7652 3.35371 10.2508C2.56378 9.72723 1.91621 9.07507 1.41102 8.29432C0.915018 7.51357 0.667015 6.59045 0.667015 5.52496C0.667015 4.4962 0.91961 3.56849 1.4248 2.74181C1.92999 1.90595 2.70156 1.24002 3.7395 0.744009C4.77743 0.248003 6.04501 0 7.54221 0C8.6077 0 9.59053 0.105631 10.4907 0.316893C11.4 0.518969 12.1486 0.748602 12.7365 1.00579C13.3244 1.26298 13.7285 1.46505 13.949 1.61202V6.08985C13.1682 5.52955 12.2956 5.02895 11.3311 4.58806C10.3759 4.14716 9.35171 3.92671 8.25866 3.92671C7.54221 3.92671 7.02324 4.06449 6.70175 4.34005C6.38027 4.61561 6.21953 4.95547 6.21953 5.35962C6.21953 5.73622 6.38027 6.0623 6.70175 6.33785C7.02324 6.61341 7.59732 6.94868 8.424 7.34364C9.89365 8.03254 11.0694 8.65255 11.9512 9.20367C12.8329 9.75479 13.5218 10.3932 14.0178 11.1188C14.523 11.8353 14.7756 12.7308 14.7756 13.8055Z" fill="white"/>
<path d="M37.0132 4.90495H30.014V19.358H24.2686V4.90495H17.2694V0.261781H37.0132V4.90495Z" fill="white"/>
<path d="M54.7868 19.358H40.3888V0.261781H54.5526V4.09205H46.148V7.59165H54.1668V11.4357H46.148V15.514H54.7868V19.358Z" fill="white"/>
<path d="M77.1484 19.358H70.9621L69.4603 15.9686C68.9092 14.7286 68.4132 13.8239 67.9723 13.2544C67.5314 12.6757 67.0997 12.3083 66.6771 12.1521C66.2638 11.9868 65.7265 11.9041 65.0651 11.9041H64.4176V19.358H58.6584V0.261781H68.4545C70.0344 0.261781 71.3295 0.583266 72.3399 1.22624C73.3503 1.86921 74.0759 2.64996 74.5168 3.56849C74.9669 4.48702 75.1919 5.35962 75.1919 6.1863C75.1919 7.15075 75.0036 7.96824 74.627 8.63877C74.2596 9.30011 73.8692 9.78234 73.4559 10.0855C73.0426 10.3886 72.5787 10.6779 72.0643 10.9535C72.6797 11.3117 73.1849 11.7388 73.5799 12.2348C73.9841 12.7216 74.5306 13.7136 75.2195 15.2109L77.1484 19.358ZM69.3225 6.29652C69.3225 5.41473 69.0332 4.79932 68.4545 4.45028C67.8758 4.10123 66.9343 3.92671 65.63 3.92671H64.4176V8.52855H65.6576C67.0629 8.52855 68.0228 8.37699 68.5372 8.07388C69.0607 7.76158 69.3225 7.16912 69.3225 6.29652Z" fill="white"/>
<path d="M94.1641 19.358H79.7662V0.261781H93.9299V4.09205H85.5254V7.59165H93.5441V11.4357H85.5254V15.514H94.1641V19.358Z" fill="white"/>
<path d="M118.468 9.79612C118.468 11.5781 118.055 13.2176 117.228 14.7148C116.411 16.212 115.189 17.4015 113.563 18.2833C111.938 19.1651 109.958 19.606 107.625 19.606C105.265 19.606 103.267 19.1468 101.632 18.2282C99.9968 17.3097 98.7798 16.1018 97.9806 14.6046C97.1907 13.1074 96.7957 11.5046 96.7957 9.79612C96.7957 8.07847 97.1907 6.47563 97.9806 4.98762C98.7706 3.49041 99.983 2.28714 101.618 1.37779C103.262 0.459265 105.265 0 107.625 0C109.389 0 110.959 0.261781 112.337 0.785343C113.724 1.3089 114.863 2.02077 115.754 2.92092C116.645 3.8119 117.32 4.85443 117.78 6.04852C118.239 7.23342 118.468 8.48262 118.468 9.79612ZM112.599 9.79612C112.599 9.07967 112.493 8.42751 112.282 7.83965C112.071 7.24261 111.749 6.72823 111.318 6.29652C110.895 5.85563 110.376 5.51577 109.761 5.27695C109.145 5.02895 108.434 4.90495 107.625 4.90495C106.082 4.90495 104.87 5.35503 103.988 6.25519C103.106 7.15535 102.665 8.33566 102.665 9.79612C102.665 11.2566 103.106 12.4415 103.988 13.3508C104.879 14.251 106.091 14.7011 107.625 14.7011C108.682 14.7011 109.582 14.4944 110.326 14.0811C111.07 13.6585 111.635 13.0799 112.02 12.345C112.406 11.601 112.599 10.7514 112.599 9.79612Z" fill="white"/>
<path d="M12.2348 34.4651V36.6048C10.8084 37.3828 9.16152 37.7718 7.29421 37.7718C5.77701 37.7718 4.48999 37.4671 3.43314 36.8576C2.37629 36.2482 1.53989 35.4085 0.923933 34.3387C0.307978 33.2689 0 32.1115 0 30.8666C0 28.8891 0.703486 27.226 2.11046 25.8774C3.52391 24.5288 5.2648 23.8545 7.33311 23.8545C8.75953 23.8545 10.3448 24.2273 12.0889 24.9729V27.0639C10.5004 26.1562 8.94756 25.7024 7.43036 25.7024C5.87427 25.7024 4.58076 26.1951 3.54985 27.1806C2.52542 28.1597 2.0132 29.3884 2.0132 30.8666C2.0132 32.3579 2.51893 33.5833 3.5304 34.5429C4.54186 35.5025 5.83536 35.9823 7.41091 35.9823C9.05778 35.9823 10.6657 35.4766 12.2348 34.4651Z" fill="white"/>
<path d="M26.3346 23.9517H27.7059L33.7844 37.6162H31.7907L29.9817 33.5898H24.2047L22.493 37.6162H20.4992L26.3346 23.9517ZM29.1842 31.8587L26.996 26.9375L24.9633 31.8587H29.1842Z" fill="white"/>
<path d="M46.0169 31.917L44.5386 31.0223C43.6114 30.4582 42.9501 29.9038 42.5546 29.3592C42.1656 28.8081 41.9711 28.1759 41.9711 27.4627C41.9711 26.3929 42.3406 25.524 43.0798 24.8562C43.8254 24.1884 44.7915 23.8545 45.978 23.8545C47.1127 23.8545 48.1533 24.1722 49.0999 24.8076V27.0153C48.1209 26.0752 47.0673 25.6051 45.9391 25.6051C45.3037 25.6051 44.7818 25.7542 44.3733 26.0525C43.9648 26.3442 43.7606 26.7203 43.7606 27.1806C43.7606 27.5891 43.9097 27.9717 44.2079 28.3283C44.5062 28.6849 44.9892 29.0577 45.6571 29.4467L47.1451 30.322C48.8049 31.3075 49.6348 32.5654 49.6348 34.0956C49.6348 35.1848 49.2685 36.0698 48.5358 36.7506C47.8097 37.4314 46.863 37.7718 45.696 37.7718C44.3538 37.7718 43.1316 37.3601 42.0294 36.5367V34.0664C43.0798 35.3955 44.2955 36.0601 45.6765 36.0601C46.286 36.0601 46.7917 35.8915 47.1937 35.5544C47.6022 35.2108 47.8064 34.7828 47.8064 34.2706C47.8064 33.4407 47.2099 32.6562 46.0169 31.917Z" fill="white"/>
<path d="M57.9868 24.0101H69.3366V25.7413H64.6002V37.6162H62.6454V25.7413H57.9868V24.0101Z" fill="white"/>
<path d="M78.5541 24.0295H80.4993V35.8462H86.6167V37.6162H78.5541V24.0295Z" fill="white"/>
<path d="M95.6883 24.0295H103.391V25.7607H97.6334V29.9038H103.196V31.6447H97.6334V35.8656H103.576V37.5968H95.6883V24.0295Z" fill="white"/>
<path d="M116.382 31.917L114.904 31.0223C113.977 30.4582 113.315 29.9038 112.92 29.3592C112.531 28.8081 112.336 28.1759 112.336 27.4627C112.336 26.3929 112.706 25.524 113.445 24.8562C114.191 24.1884 115.157 23.8545 116.343 23.8545C117.478 23.8545 118.518 24.1722 119.465 24.8076V27.0153C118.486 26.0752 117.432 25.6051 116.304 25.6051C115.669 25.6051 115.147 25.7542 114.738 26.0525C114.33 26.3442 114.126 26.7203 114.126 27.1806C114.126 27.5891 114.275 27.9717 114.573 28.3283C114.871 28.6849 115.354 29.0577 116.022 29.4467L117.51 30.322C119.17 31.3075 120 32.5654 120 34.0956C120 35.1848 119.634 36.0698 118.901 36.7506C118.175 37.4314 117.228 37.7718 116.061 37.7718C114.719 37.7718 113.497 37.3601 112.395 36.5367V34.0664C113.445 35.3955 114.661 36.0601 116.042 36.0601C116.651 36.0601 117.157 35.8915 117.559 35.5544C117.967 35.2108 118.172 34.7828 118.172 34.2706C118.172 33.4407 117.575 32.6562 116.382 31.917Z" fill="white"/>
</svg>
